<?xml version="1.0" standalone="no"?>
<!DOCTYPE svg PUBLIC "-//W3C//DTD SVG 20010904//EN"
 "http://www.w3.org/TR/2001/REC-SVG-20010904/DTD/svg10.dtd">
<svg version="1.0" xmlns="http://www.w3.org/2000/svg"
 width="300.000000pt" height="210.000000pt" viewBox="0 0 300.000000 210.000000"
 preserveAspectRatio="xMidYMid meet">
<metadata>
Created by potrace 1.10, written by Peter Selinger 2001-2011
</metadata>
<g transform="translate(0.000000,210.000000) scale(0.100000,-0.100000)"
fill="#ffffff" stroke="none">
<path d="M1490 2074 c-45 -9 -135 -36 -140 -43 -3 -3 -32 -17 -65 -30 -71 -28
-259 -141 -250 -150 3 -2 15 3 29 12 13 9 35 18 48 21 36 7 58 17 53 26 -2 4
7 5 20 2 26 -5 25 -22 -1 -22 -9 0 -34 -13 -58 -29 -42 -29 -74 -61 -62 -61 6
0 86 50 96 60 3 3 18 12 34 20 16 8 35 25 43 37 15 22 14 22 -16 13 -17 -5
-31 -5 -31 -1 0 4 25 13 56 20 35 8 52 16 44 21 -8 5 7 14 41 25 30 10 63 24
74 31 11 8 38 14 62 14 23 0 45 5 48 10 3 6 23 8 43 5 84 -10 166 -14 142 -5
-43 14 3 10 55 -5 l50 -15 -45 5 -45 5 42 -14 c23 -7 54 -16 70 -20 l28 -6
-25 15 c-14 8 -20 14 -15 14 12 0 63 -28 52 -29 -4 0 12 -17 35 -37 42 -37 48
-43 67 -73 6 -8 13 -11 17 -8 3 4 -19 31 -51 61 -46 45 -52 54 -32 50 14 -3
50 -29 81 -59 60 -56 62 -55 13 11 l-29 40 33 -37 c48 -51 79 -105 73 -126 -5
-14 -4 -15 5 -2 8 12 11 6 12 -25 0 -31 2 -35 8 -20 7 16 10 11 16 -25 l7 -45
41 2 c42 2 42 2 7 -6 l-35 -7 28 -8 c17 -5 39 -4 57 4 20 8 52 10 93 6 43 -5
57 -4 47 4 -8 5 -44 10 -80 11 l-65 2 69 8 c38 4 74 13 80 20 8 9 5 10 -14 5
-14 -4 -70 -9 -125 -11 -62 -3 -88 -1 -69 4 33 8 116 52 110 58 -1 2 -29 -8
-60 -23 -32 -14 -60 -23 -63 -20 -14 14 48 58 124 87 23 8 24 8 13 -6 -15 -18
0 -21 18 -3 18 18 15 28 -8 28 -22 0 -70 -21 -132 -59 -27 -16 -38 -19 -38 -9
1 20 28 75 29 58 1 -13 2 -13 11 0 5 8 10 22 10 30 0 13 -2 13 -9 1 -6 -8 -7
13 -5 55 l3 69 -12 -70 c-14 -74 -46 -149 -47 -109 0 12 -11 38 -25 58 -14 20
-25 41 -25 46 0 22 -85 71 -185 106 -101 35 -120 38 -230 40 -66 1 -131 0
-145 -2z"/>
<path d="M1521 2029 c-69 -13 -68 -14 11 -16 40 0 85 -6 100 -12 15 -6 36 -7
45 -4 15 6 14 8 -7 14 -14 4 -43 8 -65 9 l-40 3 35 7 35 7 -35 1 c-19 0 -55
-4 -79 -9z"/>
<path d="M1715 2014 c59 -21 85 -36 79 -45 -3 -5 3 -6 12 -2 11 4 15 3 10 -5
-3 -6 -1 -14 5 -18 8 -4 9 -3 5 4 -11 18 16 14 44 -5 24 -16 24 -16 11 1 -21
25 -158 87 -190 85 -9 0 2 -7 24 -15z"/>
<path d="M1375 1990 c-13 -6 -5 -7 25 -3 25 3 47 7 49 9 9 8 -55 2 -74 -6z"/>
<path d="M1511 1996 c2 -2 27 -6 54 -9 32 -4 43 -3 30 3 -19 8 -93 14 -84 6z"/>
<path d="M1694 1992 c-7 -4 16 -18 55 -34 52 -22 61 -23 41 -8 -14 11 -37 22
-53 25 -15 4 -25 11 -21 16 6 11 -6 12 -22 1z"/>
<path d="M1435 1969 c15 -6 9 -8 -20 -4 -28 3 -52 -1 -80 -15 -22 -11 -31 -18
-20 -14 42 13 159 22 186 14 17 -5 27 -5 24 0 -3 5 3 13 12 19 10 6 13 11 8
11 -6 0 -16 -5 -22 -11 -8 -8 -17 -8 -31 0 -11 6 -33 11 -49 10 -25 0 -26 -1
-8 -10z"/>
<path d="M1542 1955 c4 -4 31 -13 60 -20 29 -7 62 -16 73 -20 19 -6 19 -6 1 6
-11 6 -38 16 -60 21 -23 5 -50 11 -61 15 -11 3 -17 2 -13 -2z"/>
<path d="M1713 1936 c0 -8 7 -12 15 -8 10 3 13 1 8 -6 -3 -6 -2 -13 3 -16 5
-4 8 1 7 10 -3 21 -33 39 -33 20z"/>
<path d="M1405 1920 c28 -5 65 -6 84 -3 25 4 32 3 26 -7 -5 -9 -2 -10 15 -5
17 5 20 4 15 -5 -5 -8 -3 -11 6 -8 8 3 34 -6 59 -19 41 -23 43 -23 20 -3 -45
39 -91 53 -185 55 -74 2 -81 1 -40 -5z"/>
<path d="M1866 1898 c15 -20 30 -35 33 -32 3 2 -10 19 -28 37 l-34 32 29 -37z"/>
<path d="M2101 1920 c1 -8 5 -26 9 -40 l8 -25 1 25 c0 14 -4 32 -9 40 -9 13
-10 13 -9 0z"/>
<path d="M1890 1907 c9 -7 24 -23 33 -37 9 -13 17 -20 17 -14 0 17 -40 64 -53
64 -7 -1 -6 -5 3 -13z"/>
<path d="M1373 1903 c9 -2 25 -2 35 0 9 3 1 5 -18 5 -19 0 -27 -2 -17 -5z"/>
<path d="M1663 1865 c0 -13 6 -26 15 -30 12 -4 12 -3 3 9 -7 9 -8 17 -2 20 5
3 18 -5 29 -19 11 -14 23 -22 26 -17 6 10 -30 46 -55 55 -12 4 -16 -1 -16 -18z"/>
<path d="M1796 1862 c10 -19 25 -39 33 -45 9 -8 8 0 -5 21 -10 19 -25 39 -33
45 -9 8 -8 0 5 -21z"/>
<path d="M1250 1865 c-14 -7 -24 -16 -22 -19 2 -4 1 -12 -1 -19 -4 -9 -6 -9
-6 1 -1 6 -8 12 -17 12 -8 0 -12 5 -8 11 9 16 -54 -19 -77 -42 -10 -10 -27
-19 -36 -19 -10 -1 -29 -7 -43 -15 -36 -21 1 -20 41 1 17 8 33 13 36 10 3 -2
-7 -27 -21 -55 -14 -28 -23 -51 -19 -51 3 0 0 -7 -7 -15 -10 -12 -7 -12 19 1
17 8 33 20 37 26 4 6 -1 6 -14 -1 -32 -17 -40 -12 -14 8 12 11 21 25 19 33 -2
7 -2 10 0 5 7 -11 23 2 23 19 0 9 -5 12 -12 8 -7 -4 -4 3 7 15 25 29 30 13 10
-35 -8 -20 -13 -39 -11 -42 9 -8 25 8 25 26 -1 21 17 92 25 99 3 3 13 2 23 -2
10 -5 21 -8 24 -7 4 1 15 -8 24 -18 10 -11 15 -20 10 -20 -4 0 -2 -7 5 -15 13
-16 4 -20 -30 -15 -8 1 -12 -1 -8 -5 11 -11 58 -13 51 -2 -4 7 1 8 13 4 14 -6
13 -2 -6 14 -21 17 -22 20 -5 15 13 -4 9 2 -12 19 -35 28 -44 51 -17 41 14 -5
15 -4 5 8 -13 15 -3 19 84 29 17 2 8 4 -20 5 -27 1 -61 -5 -75 -13z"/>
<path d="M1753 1855 c0 -14 3 -28 8 -31 5 -3 6 3 3 13 -4 12 0 10 15 -7 28
-34 26 -21 -3 18 -23 32 -23 32 -23 7z"/>
<path d="M2000 1860 c0 -8 5 -22 10 -30 6 -10 4 -21 -8 -34 -16 -18 -16 -18 6
-7 23 12 23 32 1 71 -7 13 -8 13 -9 0z"/>
<path d="M1586 1852 c-3 -5 16 -29 42 -53 32 -30 37 -33 14 -8 -18 19 -30 38
-27 41 3 3 -1 11 -9 17 -8 7 -17 8 -20 3z"/>
<path d="M1397 1826 c12 -16 20 -20 25 -12 5 7 8 7 8 -3 0 -8 2 -12 5 -9 3 3
2 13 -1 22 -5 14 -9 15 -15 5 -6 -11 -9 -10 -15 4 -3 9 -10 17 -16 17 -5 0 -1
-11 9 -24z"/>
<path d="M1516 1829 c8 -13 44 -31 44 -22 0 4 -11 13 -25 20 -14 6 -23 7 -19
2z"/>
<path d="M1872 1820 c-17 -28 -15 -38 3 -14 14 19 14 19 15 -1 1 -11 4 -15 6
-8 3 7 2 19 -3 27 -7 13 -10 13 -21 -4z"/>
<path d="M1929 1810 c9 -26 33 -34 37 -12 2 8 1 9 -3 1 -4 -8 -12 -3 -24 12
l-19 24 9 -25z"/>
<path d="M1187 1798 c-5 -17 -2 -36 5 -48 15 -24 25 -26 25 -6 0 8 -5 14 -10
13 -5 -1 -11 3 -14 10 -3 8 6 10 27 6 22 -3 30 -1 25 6 -3 6 -15 11 -25 11
-10 0 -20 8 -22 18 -3 12 -6 9 -11 -10z"/>
<path d="M1708 1792 c3 -10 1 -13 -6 -8 -7 4 -12 3 -12 -2 0 -14 26 -33 33
-25 4 3 7 2 7 -3 0 -6 18 -11 40 -11 22 0 37 3 34 8 -3 5 -15 7 -27 4 -18 -5
-24 0 -33 23 -6 16 -18 29 -27 29 -9 0 -13 -6 -9 -15z m32 -27 c0 -5 -5 -3
-10 5 -8 12 -10 12 -10 1 0 -8 -2 -12 -5 -9 -3 3 -2 13 1 22 5 14 9 15 15 4 5
-7 9 -17 9 -23z"/>
<path d="M2042 1780 c-10 -16 -10 -20 2 -20 7 0 16 9 19 20 3 11 2 20 -2 20
-3 0 -12 -9 -19 -20z"/>
<path d="M1520 1760 c-19 -12 -16 -14 50 -29 30 -8 62 -16 70 -18 8 -2 -3 6
-25 17 -22 11 -51 20 -65 20 -20 0 -22 2 -10 10 8 5 11 10 5 10 -5 0 -17 -4
-25 -10z"/>
<path d="M2025 1734 c38 -21 85 -35 85 -26 0 7 -89 42 -106 42 -5 0 5 -7 21
-16z"/>
<path d="M1331 1733 c-32 -6 -113 -73 -108 -87 6 -16 -26 -80 -38 -75 -5 2 -9
10 -7 17 2 6 -2 12 -8 12 -13 0 -13 -23 0 -36 12 -12 3 -44 -12 -44 -6 0 -8
11 -6 25 3 14 1 25 -4 25 -5 0 -6 5 -3 10 4 6 8 29 10 53 3 36 2 39 -8 22 -17
-30 -46 -145 -36 -145 9 0 13 15 10 39 -2 7 2 10 8 6 16 -9 13 -31 -6 -51 -13
-13 -14 -19 -5 -22 7 -2 13 -23 14 -50 l1 -47 4 40 c3 22 9 45 15 50 7 7 9 0
5 -22 -4 -18 -4 -33 -2 -33 2 0 9 15 14 33 8 28 9 29 10 7 0 -14 -8 -38 -19
-55 -24 -37 -25 -44 -3 -41 10 2 18 9 18 17 1 29 17 62 25 49 7 -11 -24 -117
-44 -148 -5 -8 -4 -18 3 -25 8 -8 11 -4 12 14 l0 24 9 -23 c11 -27 3 -53 -14
-46 -14 5 -46 -36 -46 -59 0 -8 9 -17 20 -20 16 -4 20 -14 20 -44 0 -65 18
-109 60 -147 47 -42 73 -50 145 -44 37 3 67 13 97 33 24 16 45 30 48 30 18 1
28 20 25 46 -10 76 -30 99 -85 98 -37 -1 -34 -3 14 -14 24 -5 27 -8 15 -16
-11 -8 -9 -9 7 -4 30 8 41 -35 17 -71 -23 -36 -93 -80 -103 -64 -5 8 -9 7 -13
-4 -5 -12 -20 -16 -59 -15 -29 0 -46 3 -38 6 25 9 50 35 50 52 0 9 -13 28 -30
43 -16 14 -30 22 -30 17 0 -6 12 -21 28 -34 l27 -25 -28 -25 c-29 -26 -47 -32
-47 -15 0 6 -6 10 -13 10 -8 0 -22 9 -32 20 -14 16 -18 42 -22 139 l-4 119 27
21 c36 29 45 26 37 -10 -6 -31 -5 -32 23 -25 16 3 38 8 49 10 35 6 72 25 53
25 -10 1 -18 9 -18 19 -1 12 -5 9 -16 -11 -8 -15 -19 -25 -24 -22 -5 3 -18 0
-29 -7 -11 -7 -23 -10 -26 -7 -9 9 6 40 16 33 5 -3 9 0 9 5 0 6 -6 11 -12 12
-7 0 -2 5 12 11 26 10 170 21 170 11 0 -2 -10 -14 -22 -25 -21 -18 -20 -18 9
1 17 12 41 21 52 21 28 0 86 -24 96 -40 13 -21 16 -66 6 -91 -6 -13 -10 -17
-10 -9 -1 21 -85 38 -232 46 -80 5 -118 3 -123 -4 -4 -6 -14 -8 -23 -5 -11 4
-14 2 -11 -8 3 -8 10 -13 15 -12 15 3 23 -112 10 -141 -7 -14 -6 -16 3 -11 9
6 11 0 8 -24 -2 -17 -1 -31 2 -31 11 0 18 109 10 145 -7 29 -6 31 24 30 67 -3
73 -6 36 -19 l-35 -13 55 -13 c31 -7 65 -10 75 -7 13 3 7 5 -15 7 -19 1 -46 6
-60 10 l-25 8 27 1 c30 1 47 19 28 31 -8 5 -3 11 16 19 l29 11 -30 -6 c-16 -3
-33 -11 -38 -17 -5 -9 -10 -7 -18 6 -6 9 -14 15 -20 12 -11 -8 -49 3 -49 14 0
10 187 1 219 -11 17 -6 22 -14 18 -29 -4 -15 -1 -19 11 -17 9 2 18 12 20 22 3
13 0 16 -9 11 -8 -5 -10 -4 -5 3 12 20 24 13 31 -18 4 -19 13 -30 23 -30 10 0
13 -3 7 -8 -5 -4 -12 -18 -13 -32 -2 -14 -5 -30 -5 -37 -1 -6 2 -13 7 -15 12
-4 91 120 83 128 -3 3 -17 -17 -31 -45 -15 -28 -28 -51 -30 -51 -3 0 6 27 20
60 13 33 24 68 24 79 0 21 18 31 56 31 18 0 25 -7 30 -27 28 -129 126 -244
232 -274 81 -22 182 10 213 69 9 15 15 19 20 11 4 -7 7 -2 8 12 2 65 14 159
21 159 4 0 6 -44 5 -97 -6 -160 -7 -166 -35 -173 -17 -4 -26 -14 -28 -30 -19
-161 -48 -250 -105 -323 -16 -21 -27 -40 -24 -43 3 -3 15 8 28 25 28 38 39 39
39 4 0 -35 41 -153 53 -153 5 0 6 8 2 18 -50 119 -58 177 -32 229 23 43 47
148 47 205 0 44 2 47 34 58 32 10 34 14 37 63 2 29 3 103 4 165 0 109 -1 114
-25 133 -14 12 -20 18 -13 15 15 -8 29 38 41 129 13 100 4 202 -22 234 -9 12
-6 13 17 7 16 -4 27 -2 27 4 0 5 -9 10 -21 10 -13 0 -18 4 -13 13 5 8 2 7 -9
-2 -14 -11 -23 -12 -43 -2 -40 18 -52 13 -20 -9 42 -27 55 -57 61 -141 3 -41
2 -66 -3 -57 -4 10 -7 -21 -8 -67 0 -52 -5 -90 -12 -97 -9 -9 -12 -3 -12 28
-1 21 -7 50 -15 64 -20 36 -18 46 5 25 18 -17 20 -17 14 -2 -3 9 -10 17 -16
17 -5 0 -6 6 -2 13 4 6 4 9 -1 5 -4 -4 -14 0 -22 10 -13 15 -13 15 -4 -5 7
-14 8 -24 1 -28 -5 -3 -10 -1 -10 4 0 6 -4 11 -10 11 -11 0 -2 -26 21 -60 10
-14 21 -45 24 -69 l7 -44 -27 22 c-41 32 -116 49 -235 55 -58 3 -89 2 -70 -2
29 -6 21 -9 -50 -15 -47 -4 -143 -7 -215 -6 -114 0 -126 1 -100 13 28 12 26
12 -38 13 -37 0 -70 -3 -73 -8 -3 -5 -15 -9 -28 -9 -12 0 -26 -4 -31 -9 -6 -6
-31 -21 -56 -35 l-47 -24 -5 26 c-4 18 1 36 14 55 12 16 19 37 16 48 -3 10 0
19 5 19 6 0 6 6 -2 15 -6 8 -9 19 -5 25 4 6 1 9 -6 8 -6 -2 -14 3 -17 11 -3 9
0 12 10 8 14 -5 18 8 19 73 1 33 21 80 31 74 7 -4 8 -2 4 5 -8 13 28 76 48 84
7 3 67 4 132 2 84 -2 104 -1 69 5 -87 14 -149 19 -174 13z m-148 -219 c-15
-24 -43 -44 -43 -30 0 6 55 64 58 61 2 -1 -5 -16 -15 -31z m888 -209 c24 -9
53 -25 64 -35 12 -11 25 -17 30 -13 4 5 5 3 2 -3 -3 -6 -3 -34 2 -63 5 -31 4
-54 -1 -57 -6 -4 -8 -20 -5 -38 3 -17 -1 -44 -8 -61 -14 -34 -50 -69 -62 -62
-5 3 -15 2 -23 -4 -13 -7 -13 -9 0 -10 36 -2 -29 -18 -75 -18 -50 0 -50 0 -72
47 -12 26 -25 59 -29 75 -8 34 -24 43 -92 52 -44 6 -52 10 -46 24 3 9 9 25 11
36 4 17 11 20 39 17 28 -4 34 -8 34 -29 0 -18 5 -24 18 -21 11 3 16 12 15 26
-3 20 2 22 46 22 32 0 55 -6 65 -16 9 -8 16 -12 16 -8 0 4 6 -1 14 -12 13 -17
12 -20 -7 -26 -15 -4 -9 -6 18 -5 23 0 46 -3 53 -7 19 -12 14 8 -7 26 -18 16
-20 16 -23 0 -3 -13 -7 -10 -18 12 -20 39 -50 47 -192 49 l-118 2 0 32 c0 22
7 37 23 48 20 15 20 16 2 13 -11 -2 -26 -16 -33 -31 -11 -22 -19 -27 -50 -26
-30 0 -43 7 -66 35 l-29 35 126 -2 c70 -2 130 0 134 4 13 14 200 7 244 -8z
m120 -79 c5 3 9 -2 9 -10 0 -8 -4 -18 -10 -21 -5 -3 -10 -2 -10 4 0 5 -2 15
-3 23 -2 7 -2 10 0 5 3 -4 9 -5 14 -1z m-1014 -93 c-3 -10 -5 -2 -5 17 0 19 2
27 5 18 2 -10 2 -26 0 -35z m403 17 c0 -11 -6 -20 -14 -20 -7 0 -16 9 -19 20
-4 15 0 20 14 20 12 0 19 -7 19 -20z m273 -56 c20 -6 37 -43 37 -77 -1 -22 -1
-21 -20 3 -10 14 -26 34 -35 45 -16 20 -16 20 -7 0 6 -11 29 -42 53 -69 42
-47 42 -48 12 -33 -31 17 -133 123 -133 140 0 8 49 3 93 -9z"/>
<path d="M1823 1295 c-3 -9 -2 -19 1 -23 4 -4 -10 -14 -31 -24 -28 -12 -33
-17 -17 -17 12 -1 35 6 50 14 38 20 47 19 69 -5 10 -11 25 -20 33 -20 9 0 1
11 -19 25 -22 17 -33 33 -31 45 3 16 -3 20 -23 20 -14 0 -28 -7 -32 -15z m41
-4 c3 -5 -1 -12 -10 -15 -20 -8 -29 -1 -19 13 8 13 22 14 29 2z"/>
<path d="M1736 1272 c-3 -3 -6 -15 -5 -26 0 -16 2 -17 7 -6 4 8 13 15 20 15 6
0 13 4 15 9 2 10 -29 17 -37 8z"/>
<path d="M1789 1170 c-18 -12 -6 -23 19 -18 16 2 17 5 7 15 -7 6 -18 8 -26 3z"/>
<path d="M1892 1153 c2 -16 10 -29 20 -31 15 -3 18 12 8 38 -1 3 -2 8 -1 13 0
4 -6 7 -15 7 -11 0 -14 -8 -12 -27z"/>
<path d="M2100 1145 c0 -13 4 -14 20 -5 11 6 20 13 20 15 0 3 -9 5 -20 5 -11
0 -20 -7 -20 -15z"/>
<path d="M1920 1089 c6 -10 22 -31 36 -46 13 -14 22 -33 19 -40 -2 -8 0 -11 5
-8 16 10 11 30 -14 60 -14 16 -23 32 -21 36 3 4 -4 9 -15 12 -17 4 -18 2 -10
-14z"/>
<path d="M1983 1103 c9 -2 25 -2 35 0 9 3 1 5 -18 5 -19 0 -27 -2 -17 -5z"/>
<path d="M2009 1060 c-5 -36 -4 -70 3 -70 4 0 8 5 8 10 0 7 7 7 21 0 21 -12
75 -5 84 10 3 5 -9 5 -25 0 -33 -9 -80 2 -80 19 0 5 14 14 30 20 39 13 39 22
1 11 -21 -6 -31 -5 -35 3 -3 8 -5 6 -7 -3z"/>
<path d="M1782 1716 c-18 -12 -20 -16 -7 -11 38 14 75 17 75 6 0 -6 7 -8 15
-5 8 4 15 1 15 -5 0 -7 8 -8 23 -2 35 13 104 23 89 13 -11 -7 -7 -11 15 -17
15 -5 31 -8 36 -7 4 1 7 -2 7 -7 0 -5 6 -16 13 -23 32 -33 46 -63 41 -87 -4
-20 -3 -23 5 -11 9 12 11 11 11 -8 0 -30 18 -64 31 -57 5 4 9 -2 9 -12 0 -11
7 -28 15 -39 14 -18 14 -17 5 9 -5 16 -10 36 -10 45 0 15 2 15 10 2 17 -27 11
-5 -11 35 -14 27 -19 32 -15 15 3 -14 1 -32 -4 -39 -6 -10 -10 0 -15 33 -5 31
-19 63 -41 92 -40 52 -44 67 -9 34 14 -13 25 -18 25 -12 0 13 -40 43 -50 37
-4 -3 -15 4 -25 15 -20 22 -52 25 -101 11 -17 -5 -37 -5 -44 -1 -9 6 -4 10 16
12 16 3 0 4 -34 4 -45 -1 -72 -6 -90 -20z"/>
<path d="M1130 1673 c-56 -49 -76 -86 -26 -47 20 16 36 34 36 41 0 6 9 15 20
18 11 3 20 11 20 16 0 15 -8 11 -50 -28z"/>
<path d="M1175 1658 c-14 -30 -14 -31 0 -13 8 11 23 26 32 33 16 11 16 12 0
12 -9 0 -24 -15 -32 -32z"/>
<path d="M1670 1663 c0 -21 3 -24 9 -14 5 8 7 20 4 28 -8 21 -13 15 -13 -14z"/>
<path d="M2250 1678 c39 -16 80 -27 80 -22 0 8 -68 34 -87 33 -13 0 -11 -3 7
-11z"/>
<path d="M1186 1636 c-10 -17 -12 -27 -5 -31 6 -4 8 -14 5 -22 -3 -8 -1 -11 4
-8 6 3 10 14 10 24 0 9 6 23 13 30 10 11 9 12 -2 6 -11 -6 -13 -4 -8 8 9 24 2
21 -17 -7z"/>
<path d="M2120 1633 c0 -14 2 -15 9 -4 7 10 14 2 29 -31 11 -25 25 -49 31 -52
13 -9 -17 61 -38 87 -8 9 -18 17 -23 17 -4 0 -8 -8 -8 -17z"/>
<path d="M898 1453 c17 -2 47 -2 65 0 17 2 3 4 -33 4 -36 0 -50 -2 -32 -4z"/>
<path d="M1850 1430 c8 -5 26 -9 40 -9 l25 1 -25 8 c-14 4 -32 8 -40 9 -13 1
-13 0 0 -9z"/>
<path d="M2960 1421 c0 -5 7 -12 16 -15 22 -9 24 -8 24 9 0 8 -9 15 -20 15
-11 0 -20 -4 -20 -9z"/>
<path d="M1986 1361 c17 -4 37 -12 45 -16 12 -8 12 -6 0 8 -8 10 -26 17 -45
16 l-31 -1 31 -7z"/>
<path d="M1450 1259 c-19 -10 -45 -18 -57 -19 -12 0 -25 -4 -28 -10 -8 -12 37
-13 51 -1 24 22 63 21 92 -4 43 -36 49 -31 7 6 -19 17 -32 35 -29 40 6 11 7
11 -36 -12z"/>
<path d="M520 1230 c0 -5 7 -10 15 -10 8 0 15 5 15 10 0 6 -7 10 -15 10 -8 0
-15 -4 -15 -10z"/>
<path d="M1408 1161 c-15 -18 -14 -19 23 -23 43 -4 53 8 14 18 -14 3 -22 10
-19 15 9 16 -1 10 -18 -10z"/>
<path d="M240 1150 c0 -5 9 -10 20 -10 11 0 20 5 20 10 0 6 -9 10 -20 10 -11
0 -20 -4 -20 -10z"/>
<path d="M775 1140 c-4 -6 9 -10 31 -10 42 0 42 4 2 14 -15 3 -30 2 -33 -4z"/>
<path d="M2280 1140 c20 -13 43 -13 35 0 -3 6 -16 10 -28 10 -18 0 -19 -2 -7
-10z"/>
<path d="M985 1130 c3 -5 16 -10 28 -9 21 0 21 1 2 9 -28 12 -37 12 -30 0z"/>
<path d="M1700 1122 c0 -11 11 -34 25 -49 l26 -28 -22 45 c-27 56 -29 58 -29
32z"/>
<path d="M263 1117 c-35 -5 -63 -13 -63 -17 0 -8 126 12 136 23 4 4 3 6 -2 6
-5 -1 -37 -6 -71 -12z"/>
<path d="M1380 1120 c0 -5 7 -10 15 -10 8 0 15 5 15 10 0 6 -7 10 -15 10 -8 0
-15 -4 -15 -10z"/>
<path d="M800 1100 c0 -5 10 -10 23 -10 18 0 19 2 7 10 -19 13 -30 13 -30 0z"/>
<path d="M600 1090 c0 -5 14 -7 33 -3 45 8 47 13 4 13 -20 0 -37 -4 -37 -10z"/>
<path d="M975 1090 c3 -5 24 -10 46 -10 21 0 39 5 39 10 0 6 -21 10 -46 10
-27 0 -43 -4 -39 -10z"/>
<path d="M1399 1036 c-11 -25 -12 -33 -3 -29 14 5 38 63 26 63 -4 -1 -14 -16
-23 -34z"/>
<path d="M225 1050 l-50 -7 57 -1 c31 -1 60 3 63 8 3 6 0 9 -7 8 -7 0 -35 -4
-63 -8z"/>
<path d="M410 1056 c0 -2 16 -6 35 -8 19 -2 35 0 35 4 0 4 -16 8 -35 8 -19 0
-35 -2 -35 -4z"/>
<path d="M1060 1038 c0 -4 14 -8 30 -8 17 0 30 2 30 4 0 2 -13 6 -30 8 -16 3
-30 1 -30 -4z"/>
<path d="M1440 1025 c-13 -14 -19 -25 -13 -25 6 0 18 11 27 25 9 14 15 25 13
25 -2 0 -14 -11 -27 -25z"/>
<path d="M490 1025 c0 -8 8 -11 20 -8 11 3 20 7 20 8 0 1 -9 5 -20 8 -12 3
-20 0 -20 -8z"/>
<path d="M890 1030 c0 -5 10 -10 23 -10 18 0 19 2 7 10 -19 13 -30 13 -30 0z"/>
<path d="M160 1010 l-25 -8 27 -1 c15 -1 30 4 33 9 7 11 0 11 -35 0z"/>
<path d="M996 1011 c-3 -5 13 -8 37 -8 23 1 54 -2 70 -6 15 -4 27 -3 27 2 0
19 -123 30 -134 12z"/>
<path d="M206 1001 c-8 -12 19 -21 62 -20 34 0 35 1 13 10 -13 5 -33 7 -44 3
-13 -4 -17 -2 -13 5 4 6 3 11 -3 11 -5 0 -12 -4 -15 -9z"/>
<path d="M140 971 c0 -5 -8 -12 -17 -14 -14 -4 -13 -5 3 -6 12 0 24 6 28 14 3
8 1 15 -4 15 -6 0 -10 -4 -10 -9z"/>
<path d="M1180 950 c0 -11 5 -20 10 -20 7 0 7 -6 0 -19 -14 -27 -13 -38 6 -45
21 -8 34 1 27 20 -4 11 -9 12 -19 3 -16 -13 -19 2 -4 17 7 7 8 19 1 37 -12 32
-21 35 -21 7z"/>
<path d="M773 950 c21 -13 127 -20 127 -8 0 4 -17 8 -39 8 -21 0 -54 3 -72 6
-28 4 -31 3 -16 -6z"/>
<path d="M1124 945 c11 -8 26 -15 33 -15 22 0 14 8 -19 19 -30 10 -31 9 -14
-4z"/>
<path d="M690 940 c20 -13 40 -13 40 0 0 6 -12 10 -27 10 -22 0 -25 -2 -13
-10z"/>
<path d="M974 936 c16 -8 39 -11 50 -8 18 6 17 7 -9 13 -53 12 -74 9 -41 -5z"/>
<path d="M220 930 c0 -5 14 -7 33 -3 45 8 47 13 4 13 -20 0 -37 -4 -37 -10z"/>
<path d="M368 933 c18 -2 45 -2 60 0 15 2 0 4 -33 4 -33 0 -45 -2 -27 -4z"/>
<path d="M125 920 c-7 -12 22 -12 50 0 17 7 15 9 -12 9 -17 1 -35 -3 -38 -9z"/>
<path d="M1799 904 c29 -36 26 -51 -11 -74 -18 -11 -26 -20 -18 -20 26 0 60
30 60 53 0 25 -26 67 -41 67 -6 0 -1 -12 10 -26z"/>
<path d="M2415 920 c3 -5 16 -10 28 -10 18 0 19 2 7 10 -20 13 -43 13 -35 0z"/>
<path d="M188 903 c12 -2 30 -2 40 0 9 3 -1 5 -23 4 -22 0 -30 -2 -17 -4z"/>
<path d="M1511 884 c-6 -15 -9 -35 -5 -46 6 -19 52 -44 62 -34 3 3 -7 10 -21
15 -32 12 -38 29 -20 64 7 15 10 27 5 27 -5 0 -14 -12 -21 -26z"/>
<path d="M268 895 c-2 -3 -51 -10 -109 -16 -57 -5 -108 -15 -114 -21 -7 -7 1
-9 25 -4 19 3 77 11 128 17 50 7 92 16 92 20 0 10 -14 12 -22 4z"/>
<path d="M950 890 c19 -5 41 -4 50 0 10 6 -1 9 -35 9 -48 -1 -49 -1 -15 -9z"/>
<path d="M2245 890 c3 -5 16 -10 28 -9 21 0 21 1 2 9 -28 12 -37 12 -30 0z"/>
<path d="M375 885 c-5 -2 -22 -6 -37 -9 -16 -4 -28 -11 -28 -16 0 -6 9 -6 26
0 14 6 40 10 57 10 24 0 28 3 17 10 -16 10 -19 11 -35 5z"/>
<path d="M450 878 c0 -4 30 -8 68 -7 77 1 73 6 -10 12 -32 2 -58 0 -58 -5z"/>
<path d="M765 870 c11 -5 29 -9 40 -9 17 -1 17 1 5 9 -8 5 -26 9 -40 9 -23 0
-23 -1 -5 -9z"/>
<path d="M915 868 c22 -4 65 -8 95 -8 38 -2 48 -4 31 -9 -14 -4 9 -7 55 -7 74
-1 73 11 -1 16 -30 3 -30 3 5 9 19 3 -23 6 -95 6 -83 0 -115 -2 -90 -7z"/>
<path d="M2515 870 c3 -5 16 -10 28 -10 18 0 19 2 7 10 -20 13 -43 13 -35 0z"/>
<path d="M430 850 c0 -5 9 -10 21 -10 11 0 17 5 14 10 -3 6 -13 10 -21 10 -8
0 -14 -4 -14 -10z"/>
<path d="M711 849 c-24 -5 -47 -11 -50 -15 -3 -4 9 -4 28 0 18 3 46 6 62 6 16
0 29 5 29 10 0 11 -7 11 -69 -1z"/>
<path d="M1549 844 c-12 -15 -11 -16 6 -10 11 3 35 2 53 -3 40 -12 41 -6 2 14
-37 19 -44 19 -61 -1z"/>
<path d="M1703 843 c-18 -9 -33 -20 -33 -25 0 -5 13 -2 30 7 16 8 43 15 60 15
16 0 30 5 30 10 0 15 -51 11 -87 -7z"/>
<path d="M158 843 c-21 -2 -38 -8 -38 -12 0 -8 98 4 108 14 5 5 -2 5 -70 -2z"/>
<path d="M460 830 c-45 -5 -37 -7 44 -7 56 0 91 4 80 8 -22 9 -46 8 -124 -1z"/>
<path d="M808 833 c12 -2 30 -2 40 0 9 3 -1 5 -23 4 -22 0 -30 -2 -17 -4z"/>
<path d="M1265 807 c4 -39 35 -85 35 -53 0 9 -4 16 -9 16 -5 0 -14 17 -20 38
l-11 37 5 -38z"/>
<path d="M2660 830 c8 -5 26 -9 40 -9 23 0 23 1 5 9 -11 5 -29 9 -40 9 -17 1
-17 -1 -5 -9z"/>
<path d="M890 820 c-10 -7 -1 -8 30 -4 56 8 64 14 19 14 -19 0 -41 -5 -49 -10z"/>
<path d="M335 810 c-7 -12 2 -12 30 0 19 8 19 9 -2 9 -12 1 -25 -3 -28 -9z"/>
<path d="M705 810 c-8 -13 15 -13 35 0 12 8 11 10 -7 10 -12 0 -25 -4 -28 -10z"/>
<path d="M990 813 c8 -3 27 -12 43 -20 15 -7 27 -10 27 -5 0 11 -46 32 -68 31
-14 0 -14 -2 -2 -6z"/>
<path d="M1195 810 c3 -5 13 -10 21 -10 8 0 14 5 14 10 0 6 -9 10 -21 10 -11
0 -17 -4 -14 -10z"/>
<path d="M97 786 c-46 -13 -72 -26 -49 -26 27 0 112 22 118 31 7 12 -10 11
-69 -5z"/>
<path d="M290 790 c-13 -9 -13 -10 0 -11 10 0 9 -3 -5 -10 -18 -8 -18 -8 4 -6
14 1 25 9 27 20 3 19 -4 21 -26 7z"/>
<path d="M470 780 c0 -5 12 -10 28 -9 24 0 25 1 7 9 -27 12 -35 12 -35 0z"/>
<path d="M643 775 c-17 -19 -9 -23 73 -37 41 -6 74 -16 74 -20 0 -4 19 -8 43
-8 28 0 37 3 28 9 -11 7 -9 10 10 14 13 2 2 5 -26 5 -27 0 -68 3 -90 7 -22 3
-55 8 -74 11 -23 4 -30 8 -22 14 7 4 9 10 5 13 -5 3 -14 -1 -21 -8z"/>
<path d="M805 780 c-36 -6 -34 -7 25 -8 45 -1 60 1 50 8 -16 11 -16 11 -75 0z"/>
<path d="M700 772 c0 -4 11 -9 26 -10 14 -1 23 2 19 8 -7 12 -45 14 -45 2z"/>
<path d="M2521 776 c2 -2 22 -6 44 -9 28 -5 34 -4 20 3 -19 8 -73 14 -64 6z"/>
<path d="M136 762 c-3 -5 18 -9 47 -9 39 0 46 1 27 7 -35 11 -68 12 -74 2z"/>
<path d="M2300 760 c8 -5 22 -10 30 -10 13 0 13 1 0 10 -8 5 -22 10 -30 10
-13 0 -13 -1 0 -10z"/>
<path d="M530 750 c36 -4 83 -12 105 -18 22 -6 41 -9 44 -7 2 3 -2 6 -10 8 -8
2 -30 9 -50 16 -19 6 -62 10 -95 9 l-59 -1 65 -7z"/>
<path d="M200 730 c-30 -10 -46 -18 -36 -19 11 -1 17 -3 14 -6 -3 -3 -23 -2
-44 3 l-39 8 35 8 c19 4 29 10 23 13 -20 7 -88 -18 -73 -27 10 -6 8 -9 -6 -13
-10 -2 1 -3 26 -1 33 3 40 1 25 -5 -15 -7 -16 -10 -4 -10 25 -1 80 20 74 29
-3 4 15 13 40 19 25 6 45 13 45 16 0 8 -22 4 -80 -15z"/>
<path d="M1202 743 c-17 -7 -5 -23 18 -23 10 0 24 -8 30 -17 10 -16 10 -16 8
2 -2 12 -12 21 -26 23 -12 2 -20 8 -17 13 7 10 6 10 -13 2z"/>
<path d="M2870 740 c34 -11 60 -11 35 0 -11 5 -29 8 -40 8 -16 0 -15 -2 5 -8z"/>
<path d="M0 730 c0 -13 30 -13 50 0 11 7 7 10 -17 10 -18 0 -33 -4 -33 -10z"/>
<path d="M306 728 c3 -4 -10 -8 -28 -8 -18 0 -40 -5 -48 -11 -11 -8 -6 -9 20
-4 19 3 65 9 103 12 83 7 89 23 8 20 -33 0 -57 -5 -55 -9z"/>
<path d="M910 730 c0 -5 7 -10 15 -10 8 0 15 5 15 10 0 6 -7 10 -15 10 -8 0
-15 -4 -15 -10z"/>
<path d="M985 733 c6 -6 24 -15 40 -21 17 -5 39 -13 49 -18 13 -5 17 -4 12 4
-4 6 -21 15 -39 21 -18 5 -41 12 -52 16 -13 5 -17 5 -10 -2z"/>
<path d="M2430 729 c-13 -9 -12 -10 2 -5 10 3 28 1 40 -4 18 -7 11 -9 -31 -9
-30 -1 -51 -4 -48 -8 4 -3 26 -6 49 -5 31 1 39 -1 28 -8 -8 -5 -10 -10 -5 -10
30 0 40 34 15 50 -19 12 -32 12 -50 -1z"/>
<path d="M2575 724 c21 -15 49 -19 41 -5 -3 5 -18 11 -33 14 -26 5 -26 4 -8
-9z"/>
<path d="M1090 723 c8 -3 18 -10 21 -16 4 -5 13 -6 20 -2 9 6 8 10 -7 16 -10
4 -26 8 -34 8 -13 -1 -13 -1 0 -6z"/>
<path d="M425 712 c-22 -2 -44 -8 -50 -14 -7 -7 5 -9 41 -4 36 4 72 0 130 -15
43 -12 93 -23 109 -26 26 -3 25 -2 -9 11 -22 8 -57 18 -78 21 -21 4 -38 11
-38 16 0 5 15 6 33 2 17 -3 29 -2 25 2 -8 8 -97 12 -163 7z"/>
<path d="M2735 710 c19 -8 19 -9 1 -9 -11 -1 -17 -3 -14 -6 3 -3 20 -2 38 2
29 5 31 7 15 14 -11 4 -29 8 -40 8 -20 0 -20 0 0 -9z"/>
<path d="M2810 710 c20 -13 43 -13 35 0 -3 6 -16 10 -28 10 -18 0 -19 -2 -7
-10z"/>
<path d="M930 700 c-29 -5 -23 -7 39 -13 41 -4 76 -5 79 -2 3 3 -7 5 -22 5
-15 0 -35 4 -44 8 -9 5 -33 5 -52 2z"/>
<path d="M1597 696 c-20 -8 -44 -19 -52 -26 -8 -6 -18 -9 -23 -6 -5 3 -18 -1
-28 -10 -17 -14 -14 -14 41 -8 33 4 68 7 78 6 30 -3 115 2 127 7 3 1 31 3 63
5 32 2 61 7 65 10 4 4 -62 5 -147 2 -85 -3 -152 -3 -148 0 3 3 29 12 59 19 29
7 42 13 28 13 -14 1 -42 -5 -63 -12z"/>
<path d="M1725 700 c17 -4 39 -8 50 -9 16 -1 17 1 5 9 -8 5 -31 9 -50 9 l-35
-1 30 -8z"/>
<path d="M2930 700 c18 -11 70 -13 70 -2 0 4 -19 8 -43 10 -30 1 -38 -1 -27
-8z"/>
<path d="M675 690 c3 -5 25 -10 47 -10 51 0 47 5 -10 14 -29 4 -41 3 -37 -4z"/>
<path d="M5 680 c-3 -5 1 -10 9 -10 8 0 18 5 21 10 3 6 -1 10 -9 10 -8 0 -18
-4 -21 -10z"/>
<path d="M310 680 c-22 -7 -21 -8 13 -9 23 -1 36 3 32 9 -7 11 -10 11 -45 0z"/>
<path d="M1110 679 c8 -5 29 -9 45 -8 59 2 108 -1 102 -7 -3 -3 -30 -10 -59
-15 l-53 -8 64 4 c35 3 67 7 70 10 14 15 -25 26 -100 30 -56 3 -79 1 -69 -6z"/>
<path d="M798 671 c-26 -4 -51 -11 -55 -15 -4 -5 4 -6 18 -2 19 4 29 1 33 -9
3 -8 13 -15 23 -15 15 0 16 2 3 10 -29 18 1 23 39 5 22 -10 47 -15 55 -12 8 3
39 -3 68 -13 l53 -19 -45 4 c-40 5 -42 4 -15 -5 17 -6 43 -7 58 -4 15 3 50 0
78 -6 28 -7 52 -10 55 -8 5 6 -197 59 -246 65 -69 8 -85 14 -69 24 7 5 10 8 4
8 -5 -1 -31 -5 -57 -8z"/>
<path d="M930 670 c-11 -7 -6 -10 20 -10 26 0 31 3 20 10 -8 5 -17 10 -20 10
-3 0 -12 -5 -20 -10z"/>
<path d="M2507 668 c-10 -5 -29 -7 -42 -4 -13 3 -27 2 -30 -4 -8 -13 65 -13
85 0 20 13 9 21 -13 8z"/>
<path d="M2583 673 c-18 -7 -16 -23 3 -23 8 0 13 4 9 9 -3 5 5 12 17 14 19 4
20 4 3 5 -11 0 -26 -2 -32 -5z"/>
<path d="M179 658 c-18 -4 -14 -6 16 -6 22 0 49 3 60 8 15 6 12 8 -16 7 -20
-1 -47 -5 -60 -9z"/>
<path d="M2760 654 c58 -18 74 -17 31 1 -18 8 -43 15 -55 14 -12 0 -1 -7 24
-15z"/>
<path d="M80 648 c0 -5 -18 -8 -40 -8 -22 0 -40 -4 -40 -10 0 -16 62 -11 100
9 34 19 34 19 8 18 -16 -1 -28 -5 -28 -9z"/>
<path d="M1311 645 c0 -11 15 -48 33 -82 19 -35 31 -63 27 -64 -68 -5 -94 -9
-99 -14 -4 -4 21 -5 55 -2 56 5 63 3 85 -20 39 -42 130 -106 172 -121 42 -14
187 -9 234 9 32 12 169 116 175 133 3 8 -32 -14 -79 -49 -97 -74 -129 -85
-239 -85 -71 0 -86 4 -133 31 -58 33 -161 131 -178 169 -42 94 -53 113 -53 95z"/>
<path d="M2284 645 c11 -8 38 -16 60 -16 36 -1 34 -2 -18 -10 -32 -5 -62 -11
-65 -15 -8 -8 107 6 134 16 17 7 14 9 -15 14 -19 4 -43 8 -52 10 -10 1 -21 5
-24 9 -4 4 -14 7 -23 7 -13 -1 -12 -3 3 -15z"/>
<path d="M195 630 c-30 -8 -30 -8 8 -9 20 0 37 4 37 9 0 11 -2 11 -45 0z"/>
<path d="M385 624 l-100 -13 94 6 c54 3 91 1 88 -4 -3 -5 7 -7 24 -5 34 5 36
8 12 20 -10 4 -62 3 -118 -4z"/>
<path d="M600 629 c-11 -7 -4 -8 25 -3 50 8 58 14 19 14 -16 0 -36 -5 -44 -11z"/>
<path d="M1065 630 c3 -5 15 -10 26 -10 11 0 17 5 14 10 -3 6 -15 10 -26 10
-11 0 -17 -4 -14 -10z"/>
<path d="M704 619 c-19 -4 -2 -7 46 -9 41 -1 86 -4 100 -6 15 -3 21 -1 15 5
-12 12 -122 18 -161 10z"/>
<path d="M1139 610 c33 -14 141 -25 141 -14 0 5 -17 9 -37 10 -21 0 -58 3 -83
7 -36 6 -40 5 -21 -3z"/>
<path d="M2470 610 c0 -5 17 -10 38 -9 33 1 34 2 12 9 -36 11 -50 11 -50 0z"/>
<path d="M2865 610 c3 -5 18 -10 32 -10 32 0 28 5 -10 14 -19 4 -26 3 -22 -4z"/>
<path d="M122 603 c-6 -2 -10 -9 -6 -14 3 -5 -10 -9 -28 -10 -18 0 -42 -4 -53
-9 -18 -8 -18 -9 5 -9 33 -1 162 29 175 41 6 6 5 7 -5 4 -43 -13 -71 -16 -65
-6 7 11 -1 12 -23 3z"/>
<path d="M323 591 c-24 -4 -46 -11 -50 -15 -9 -9 72 2 102 15 24 9 7 9 -52 0z"/>
<path d="M625 590 c-3 -5 1 -10 9 -10 8 0 18 5 21 10 3 6 -1 10 -9 10 -8 0
-18 -4 -21 -10z"/>
<path d="M2140 591 c12 -9 11 -11 -8 -11 -13 0 -20 -4 -17 -10 3 -5 21 -10 38
-10 25 0 29 3 17 10 -11 7 -3 8 26 4 25 -4 44 -2 48 4 4 7 -7 11 -31 10 -21
-1 -49 2 -63 6 -19 6 -21 5 -10 -3z"/>
<path d="M2730 590 c0 -5 10 -10 23 -10 18 0 19 2 7 10 -19 13 -30 13 -30 0z"/>
<path d="M740 581 c-18 -10 -58 -27 -83 -35 -21 -7 -77 4 -77 15 0 4 8 10 18
12 9 3 -5 5 -33 5 -46 0 -48 -1 -24 -11 14 -7 32 -17 40 -23 17 -14 69 -24 69
-14 0 8 48 21 99 26 38 3 54 13 25 15 -10 1 -3 5 16 9 l35 7 -35 1 c-19 0 -42
-3 -50 -7z"/>
<path d="M2525 580 c3 -5 13 -10 21 -10 8 0 12 5 9 10 -3 6 -13 10 -21 10 -8
0 -12 -4 -9 -10z"/>
<path d="M2675 575 c17 -8 39 -14 50 -14 14 0 9 4 -14 14 -43 19 -77 18 -36 0z"/>
<path d="M155 570 c-11 -5 -15 -9 -8 -9 6 -1 19 -4 29 -8 12 -4 15 -3 10 5 -4
8 -2 10 8 6 8 -3 23 -1 33 5 15 9 12 10 -17 10 -19 0 -44 -4 -55 -9z"/>
<path d="M331 569 c-30 -5 -57 -12 -60 -15 -8 -8 112 5 147 16 l27 8 -30 0
c-16 0 -54 -4 -84 -9z"/>
<path d="M655 570 c-19 -8 -19 -9 2 -9 12 -1 25 4 28 9 7 12 -2 12 -30 0z"/>
<path d="M1663 566 c2 -6 14 -12 26 -12 29 -2 22 19 -7 21 -13 1 -21 -3 -19
-9z"/>
<path d="M2470 573 c8 -2 22 -7 30 -9 13 -5 13 -6 0 -14 -8 -6 -10 -10 -5 -10
6 0 17 5 25 10 13 9 13 11 0 20 -8 5 -26 9 -40 9 -14 0 -18 -3 -10 -6z"/>
<path d="M1000 563 c14 -3 30 -9 35 -13 6 -4 33 -11 60 -14 l50 -5 -50 13
c-27 7 -44 14 -37 17 8 3 -8 5 -35 5 -26 1 -37 -1 -23 -3z"/>
<path d="M1255 560 c-4 -6 -30 -8 -63 -5 -40 3 -50 2 -32 -4 37 -13 81 -12
115 4 26 12 27 13 8 14 -12 1 -25 -4 -28 -9z"/>
<path d="M2205 556 c-47 -16 -37 -19 20 -6 30 7 61 4 129 -11 49 -11 94 -18
100 -16 11 4 -107 32 -174 41 -19 3 -53 -1 -75 -8z"/>
<path d="M430 552 c0 -14 50 -22 90 -12 l35 8 -47 1 c-25 1 -53 4 -62 7 -9 3
-16 2 -16 -4z"/>
<path d="M9 541 c7 -5 9 -11 5 -13 -5 -3 -3 -3 4 -1 8 1 23 3 35 3 18 0 19 2
7 10 -8 5 -26 10 -40 10 -18 0 -21 -3 -11 -9z"/>
<path d="M96 531 c-17 -18 -16 -19 3 -26 18 -6 61 9 61 21 0 2 -9 0 -19 -6
-11 -5 -25 -10 -31 -10 -17 0 -1 20 24 30 21 9 21 9 0 9 -11 1 -29 -8 -38 -18z"/>
<path d="M891 541 c-11 -7 -9 -10 8 -16 13 -4 25 -4 28 -1 4 3 0 6 -8 7 -8 0
-6 4 6 9 20 9 20 9 0 9 -11 0 -26 -3 -34 -8z"/>
<path d="M255 531 c-3 -5 -22 -8 -43 -6 -34 4 -35 4 -7 -4 17 -5 24 -9 18 -10
-7 0 -13 -6 -13 -11 0 -7 6 -7 18 -2 9 5 22 7 29 5 7 -2 20 1 30 7 15 9 13 10
-12 5 -29 -6 -29 -6 -10 9 11 8 15 16 8 16 -6 0 -14 -4 -18 -9z"/>
<path d="M700 530 c-12 -8 -10 -10 10 -9 14 0 43 -2 65 -5 36 -6 35 -5 -10 8
-27 8 -50 15 -50 15 0 1 -7 -4 -15 -9z"/>
<path d="M2180 532 c-14 -2 -29 -8 -35 -13 -6 -6 4 -7 25 -3 43 9 116 8 155
-1 23 -6 27 -5 19 4 -11 12 -117 20 -164 13z"/>
<path d="M2570 530 c20 -13 43 -13 35 0 -3 6 -16 10 -28 10 -18 0 -19 -2 -7
-10z"/>
<path d="M2730 520 c30 -10 57 -17 59 -14 7 6 -67 34 -91 34 -13 -1 0 -9 32
-20z"/>
<path d="M850 520 c8 -5 22 -10 30 -10 13 0 13 1 0 10 -8 5 -22 10 -30 10 -13
0 -13 -1 0 -10z"/>
<path d="M990 520 c-12 -8 -9 -10 13 -10 15 0 27 5 27 10 0 13 -20 13 -40 0z"/>
<path d="M1227 518 c-7 -4 12 -8 41 -8 28 0 52 2 52 4 0 8 -81 11 -93 4z"/>
<path d="M2855 520 c3 -5 16 -10 28 -9 21 0 21 1 2 9 -28 12 -37 12 -30 0z"/>
<path d="M1148 513 c-22 -6 -23 -19 -2 -27 23 -9 36 -7 29 4 -3 6 4 10 17 11
22 0 22 1 3 9 -22 10 -23 10 -47 3z"/>
<path d="M2380 510 c8 -5 24 -9 35 -9 20 0 20 0 0 9 -11 5 -27 9 -35 9 -13 1
-13 0 0 -9z"/>
<path d="M2475 510 c3 -5 13 -10 21 -10 8 0 12 5 9 10 -3 6 -13 10 -21 10 -8
0 -12 -4 -9 -10z"/>
<path d="M155 500 c-18 -8 -17 -9 8 -9 15 -1 27 4 27 9 0 12 -8 12 -35 0z"/>
<path d="M310 501 c0 -11 52 -19 76 -11 14 5 11 8 -15 13 -45 9 -61 9 -61 -2z"/>
<path d="M550 489 c-25 -14 -29 -19 -15 -19 11 0 31 9 45 20 32 25 15 25 -30
-1z"/>
<path d="M1049 501 c7 -5 22 -6 32 -4 26 7 24 -6 -3 -17 -23 -10 -23 -10 2 -7
14 1 26 9 28 20 3 14 -4 17 -35 17 -25 0 -33 -3 -24 -9z"/>
<path d="M2975 500 c18 -8 18 -9 -5 -10 -23 -1 -23 -2 -5 -10 29 -12 31 -12
32 10 1 15 -4 20 -20 19 -21 0 -21 -1 -2 -9z"/>
<path d="M592 487 c-23 -13 -20 -27 5 -27 8 0 11 5 8 10 -3 6 1 10 9 10 9 0
16 5 16 10 0 13 -10 12 -38 -3z"/>
<path d="M645 491 c-2 -5 22 -9 55 -10 32 0 61 2 63 6 3 5 -21 9 -54 10 -32 1
-61 -2 -64 -6z"/>
<path d="M822 494 c10 -3 15 -11 11 -21 -5 -13 -3 -14 17 -3 13 7 40 10 63 7
29 -4 36 -2 28 6 -6 6 -39 12 -73 13 -35 2 -55 1 -46 -2z"/>
<path d="M2328 493 c12 -2 30 -2 40 0 9 3 -1 5 -23 4 -22 0 -30 -2 -17 -4z"/>
<path d="M2460 491 c8 -5 33 -13 55 -17 22 -4 56 -12 77 -20 25 -9 45 -10 65
-3 l28 9 -30 -4 c-16 -2 -38 0 -47 5 -10 5 -39 14 -65 19 -27 5 -59 12 -73 16
-19 4 -21 3 -10 -5z"/>
<path d="M2555 490 c11 -5 31 -9 45 -9 23 0 23 1 5 9 -11 5 -31 9 -45 9 -23 0
-23 -1 -5 -9z"/>
<path d="M2825 490 c11 -5 38 -8 60 -8 l40 0 -40 9 c-22 4 -49 8 -60 8 -20 0
-20 0 0 -9z"/>
<path d="M10 480 c-26 -16 -4 -20 36 -6 38 14 38 15 9 15 -16 0 -37 -3 -45 -9z"/>
<path d="M270 481 c0 -5 -8 -12 -17 -14 -10 -3 9 -5 42 -6 47 0 56 2 42 10
-10 6 -27 9 -38 6 -10 -3 -17 -1 -13 4 3 5 0 9 -5 9 -6 0 -11 -4 -11 -9z"/>
<path d="M2205 480 c3 -5 13 -10 21 -10 8 0 14 5 14 10 0 6 -9 10 -21 10 -11
0 -17 -4 -14 -10z"/>
<path d="M61 469 c-18 -6 -31 -12 -28 -15 6 -6 87 14 87 21 0 7 -20 5 -59 -6z"/>
<path d="M153 468 c20 -7 35 -7 50 0 18 9 14 11 -28 11 -46 -1 -48 -1 -22 -11z"/>
<path d="M400 470 c0 -5 9 -10 21 -10 11 0 17 5 14 10 -3 6 -13 10 -21 10 -8
0 -14 -4 -14 -10z"/>
<path d="M705 464 c-35 -7 -48 -12 -30 -12 47 -1 122 13 105 19 -8 3 -42 0
-75 -7z"/>
<path d="M1002 466 c20 -6 40 -15 45 -20 4 -5 2 -7 -7 -4 -50 17 -62 20 -56
10 4 -7 -22 -10 -81 -8 -49 2 -77 0 -63 -3 41 -11 7 -24 -115 -43 -94 -14
-100 -16 -40 -13 39 3 85 5 103 5 19 0 42 8 54 20 17 15 32 19 77 16 31 -1 62
1 68 7 8 6 24 5 43 -2 23 -7 29 -7 24 1 -5 8 -1 9 11 5 40 -16 104 -29 121
-24 12 2 2 7 -24 12 -24 4 -49 13 -55 19 -14 13 -98 37 -125 35 -9 -1 0 -6 20
-13z"/>
<path d="M1130 465 c11 -11 29 -13 74 -8 42 4 54 9 42 15 -10 5 -31 5 -53 -1
-24 -7 -41 -7 -47 -1 -6 6 -15 10 -20 10 -6 0 -4 -7 4 -15z"/>
<path d="M2155 470 c28 -12 47 -12 40 0 -3 6 -18 10 -33 9 -24 0 -25 -1 -7 -9z"/>
<path d="M2648 473 c12 -2 30 -2 40 0 9 3 -1 5 -23 4 -22 0 -30 -2 -17 -4z"/>
<path d="M2720 470 c8 -5 26 -9 40 -9 l25 1 -25 8 c-14 4 -32 8 -40 9 -13 1
-13 0 0 -9z"/>
<path d="M2804 472 c3 -6 19 -12 36 -14 37 -6 27 7 -13 16 -17 4 -26 3 -23 -2z"/>
<path d="M1300 466 c0 -2 11 -6 25 -8 14 -3 25 -1 25 3 0 5 -11 9 -25 9 -14 0
-25 -2 -25 -4z"/>
<path d="M2360 461 c74 -25 111 -33 142 -29 18 3 44 1 58 -4 21 -8 23 -7 10 4
-22 21 -88 40 -102 31 -9 -5 -1 -10 22 -14 l35 -6 -40 -2 c-23 0 -45 3 -50 8
-6 5 -30 12 -55 15 -32 4 -38 3 -20 -3z"/>
<path d="M2905 460 c28 -12 47 -12 40 0 -3 6 -18 10 -33 9 -24 0 -25 -1 -7 -9z"/>
<path d="M440 439 c0 -9 68 -24 75 -17 2 2 -13 9 -35 15 -22 5 -40 7 -40 2z"/>
<path d="M1255 440 l-40 -7 37 -2 c20 0 40 4 43 9 3 6 5 9 3 9 -2 -1 -21 -5
-43 -9z"/>
<path d="M1366 442 c-3 -5 8 -9 24 -9 16 0 27 4 24 9 -3 4 -14 8 -24 8 -10 0
-21 -4 -24 -8z"/>
<path d="M2225 442 c-46 -3 -55 -6 -40 -13 17 -8 16 -9 -7 -6 -15 2 -25 1 -23
-3 3 -4 28 -10 57 -14 29 -3 71 -8 93 -10 25 -3 13 2 -30 13 l-70 18 72 -1
c39 0 69 -4 66 -8 -2 -5 16 -8 41 -8 25 0 46 4 46 10 0 9 -24 11 -114 12 -27
0 -35 3 -25 9 8 5 10 8 4 7 -5 -1 -37 -4 -70 -6z"/>
<path d="M2810 440 c0 -5 15 -10 33 -10 24 0 28 3 17 10 -20 13 -50 13 -50 0z"/>
<path d="M2918 433 c18 -2 45 -2 60 0 15 2 0 4 -33 4 -33 0 -45 -2 -27 -4z"/>
<path d="M41 415 c-31 -8 -40 -13 -28 -18 9 -3 40 2 69 13 60 21 31 25 -41 5z"/>
<path d="M135 411 c-22 -11 -36 -20 -31 -20 14 -2 90 22 101 31 17 15 -30 8
-70 -11z"/>
<path d="M273 423 c-13 -2 -23 -8 -23 -12 0 -5 12 -6 26 -3 18 3 25 1 20 -6
-7 -12 110 -53 146 -51 17 1 14 4 -14 13 -20 6 -40 14 -44 19 -4 4 -23 8 -43
8 -23 1 -28 3 -13 6 12 2 22 8 22 12 0 5 -12 6 -26 3 -19 -3 -25 -1 -20 7 4 6
4 10 -1 10 -4 -1 -18 -4 -30 -6z"/>
<path d="M392 425 c7 -8 114 -31 188 -41 66 -9 8 13 -65 25 -38 6 -83 14 -100
18 -16 3 -27 2 -23 -2z"/>
<path d="M550 420 c0 -6 24 -10 53 -9 41 1 47 3 27 9 -36 12 -80 12 -80 0z"/>
<path d="M690 420 c-15 -6 4 -7 50 -3 41 3 77 7 79 9 8 8 -105 2 -129 -6z"/>
<path d="M1419 415 c-18 -18 -112 -44 -191 -52 -38 -4 -55 -9 -46 -14 9 -6 6
-9 -9 -9 -13 0 -23 4 -23 10 0 5 -10 9 -22 9 -13 0 -63 0 -113 0 -49 1 -108
-3 -130 -9 -22 -5 -56 -10 -75 -10 -27 -1 -31 -3 -15 -9 24 -9 66 -8 83 3 7 4
58 9 114 10 78 3 88 2 43 -3 -33 -4 -50 -8 -37 -9 35 -3 18 -18 -27 -26 -35
-5 -60 -21 -49 -31 4 -5 125 34 160 52 14 7 34 13 45 12 16 0 16 -1 -2 -9 -45
-19 69 -1 120 20 11 4 49 13 85 20 36 6 70 16 76 21 6 5 15 5 19 1 5 -4 4 -1
0 7 -6 11 -4 13 8 8 10 -3 17 -2 17 3 0 17 -17 19 -31 5z"/>
<path d="M873 406 c-26 -12 -30 -26 -9 -26 13 0 43 28 35 33 -2 2 -14 -2 -26
-7z"/>
<path d="M1270 410 c0 -5 13 -10 29 -10 17 0 33 5 36 10 4 6 -8 10 -29 10 -20
0 -36 -4 -36 -10z"/>
<path d="M2565 411 c-21 -5 -8 -7 40 -7 44 0 61 3 45 7 -31 9 -47 9 -85 0z"/>
<path d="M2908 413 c12 -2 30 -2 40 0 9 3 -1 5 -23 4 -22 0 -30 -2 -17 -4z"/>
<path d="M1046 401 c5 -6 29 -13 54 -16 l45 -5 -45 15 c-53 17 -68 19 -54 6z"/>
<path d="M2845 395 c34 -16 64 -20 50 -6 -6 4 -26 11 -45 14 l-35 6 30 -14z"/>
<path d="M2960 400 c-24 -8 -23 -8 8 -9 20 -1 31 3 27 9 -3 6 -7 10 -8 9 -1
-1 -13 -5 -27 -9z"/>
<path d="M416 388 c3 -4 15 -8 28 -8 12 0 26 -4 32 -9 5 -5 24 -13 42 -18 38
-10 42 -29 5 -26 -14 1 -22 -1 -18 -5 4 -4 -19 -13 -52 -19 l-58 -12 58 4 c32
3 75 12 95 21 35 15 36 16 18 30 -11 8 -29 14 -40 15 -20 0 -20 1 -2 8 13 5
-1 10 -47 17 -36 5 -63 6 -61 2z"/>
<path d="M928 393 c6 -2 10 -8 7 -13 -3 -4 4 -6 16 -3 16 4 17 8 7 14 -7 5
-20 8 -28 8 -10 0 -11 -2 -2 -6z"/>
<path d="M1016 391 c5 -5 20 -12 34 -15 l25 -7 -25 15 c-28 17 -50 21 -34 7z"/>
<path d="M2160 391 c0 -13 45 -29 134 -46 90 -19 115 -15 30 4 -42 10 -53 16
-43 23 10 7 9 8 -6 3 -24 -8 -23 -8 -54 -6 -16 1 -21 5 -17 16 4 11 -1 15 -19
15 -14 0 -25 -4 -25 -9z"/>
<path d="M2362 391 c-20 -12 9 -21 72 -21 28 0 78 -7 109 -15 73 -19 101 -19
117 0 11 14 10 14 -16 5 -35 -14 -105 -4 -83 12 10 7 7 8 -12 4 -15 -3 -46 1
-69 9 -47 17 -98 19 -118 6z m76 -8 c-10 -2 -28 -2 -40 0 -13 2 -5 4 17 4 22
1 32 -1 23 -4z"/>
<path d="M195 380 c-34 -6 -28 -7 35 -8 52 -1 70 1 60 8 -17 11 -35 11 -95 0z"/>
<path d="M2633 383 c15 -2 37 -2 50 0 12 2 0 4 -28 4 -27 0 -38 -2 -22 -4z"/>
<path d="M2745 376 l-40 -13 30 -7 c16 -4 33 -12 36 -18 4 -6 13 -8 20 -6 9 3
3 10 -16 21 -38 20 -19 22 28 2 20 -8 52 -15 70 -15 19 0 51 -7 72 -16 20 -8
42 -13 48 -10 7 2 4 5 -5 5 -10 1 -18 5 -18 9 0 14 -77 33 -107 26 -23 -4 -25
-3 -13 6 13 10 12 11 -3 6 -27 -9 -73 4 -55 15 17 11 2 10 -47 -5z"/>
<path d="M31 368 c-26 -7 -31 -12 -20 -19 12 -7 12 -9 -1 -9 -13 0 -13 -1 0
-10 20 -13 57 -13 65 0 4 7 -3 9 -22 5 -19 -5 -24 -4 -14 3 11 8 11 10 0 15
-9 3 -7 6 6 6 11 1 27 6 35 11 13 9 13 10 0 9 -8 0 -30 -5 -49 -11z"/>
<path d="M774 369 c12 -8 25 -8 40 -1 18 9 16 11 -19 11 -33 0 -37 -1 -21 -10z"/>
<path d="M1397 353 c-14 -16 -41 -59 -59 -98 -30 -63 -33 -79 -34 -165 -1 -52
2 -86 6 -75 7 18 8 19 15 2 4 -9 11 -17 16 -17 5 0 1 12 -8 27 -41 62 -13 190
66 309 35 51 35 54 -2 17z"/>
<path d="M1424 310 c-40 -96 -48 -142 -33 -188 16 -50 42 -76 102 -102 45 -20
63 -22 157 -17 209 10 372 76 512 206 86 79 86 80 65 96 -22 16 -22 16 8 12
17 -3 39 -1 50 3 15 7 10 9 -22 9 -57 1 -58 0 -55 -30 4 -39 -117 -149 -222
-199 -100 -48 -272 -90 -369 -90 -118 0 -202 51 -208 126 -3 47 0 71 9 57 5
-8 8 7 8 35 0 26 8 62 18 80 9 18 16 43 14 55 -2 15 -13 0 -34 -53z"/>
<path d="M630 360 c-20 -6 -21 -8 -5 -8 11 0 31 4 45 8 20 6 21 8 5 8 -11 0
-31 -4 -45 -8z"/>
<path d="M167 348 c39 -6 77 -6 105 0 37 9 29 10 -62 10 -103 -1 -104 -1 -43
-10z"/>
<path d="M2428 353 c12 -2 30 -2 40 0 9 3 -1 5 -23 4 -22 0 -30 -2 -17 -4z"/>
<path d="M2660 336 l-55 -12 45 -6 c24 -4 46 -12 48 -17 2 -6 12 -11 22 -11
10 0 21 -4 24 -9 3 -5 16 -11 28 -14 13 -2 32 -8 43 -11 11 -4 8 0 -7 9 -33
18 -37 29 -8 20 11 -3 28 -1 37 5 14 9 7 10 -33 6 -84 -8 -121 9 -66 31 l27
12 -30 -5 c-23 -4 -27 -3 -15 5 18 13 12 12 -60 -3z"/>
<path d="M250 330 l-25 -8 25 -1 c14 0 32 4 40 9 13 9 13 10 0 9 -8 -1 -26 -5
-40 -9z"/>
<path d="M693 333 c9 -2 25 -2 35 0 9 3 1 5 -18 5 -19 0 -27 -2 -17 -5z"/>
<path d="M2416 331 c-19 -7 -19 -8 2 -13 14 -4 20 -2 15 4 -4 8 7 9 33 5 96
-16 108 -16 59 -3 -58 16 -82 18 -109 7z"/>
<path d="M95 320 c3 -5 32 -10 63 -10 41 0 53 3 42 10 -20 13 -113 13 -105 0z"/>
<path d="M376 320 c-16 -5 -33 -7 -38 -4 -4 3 -34 0 -66 -7 -31 -6 -70 -13
-85 -14 -15 -2 -31 -6 -35 -10 -4 -4 20 -4 53 -1 33 4 71 8 85 9 14 1 31 6 38
10 6 5 12 4 12 -2 0 -9 31 -2 85 20 20 8 20 8 0 7 -11 0 -33 -4 -49 -8z"/>
<path d="M2832 323 c9 -2 22 -11 28 -19 14 -16 48 -18 70 -4 11 8 7 9 -14 4
-17 -4 -31 -2 -35 4 -4 7 -20 13 -36 16 -17 2 -22 1 -13 -1z"/>
<path d="M604 312 c10 -9 206 -9 206 0 0 4 -48 8 -106 7 -58 0 -103 -3 -100
-7z"/>
<path d="M848 295 c18 -13 29 -15 45 -7 21 10 21 11 2 11 -11 1 -31 4 -45 7
l-25 6 23 -17z"/>
<path d="M2286 289 c10 -12 38 -35 62 -51 24 -17 41 -33 38 -36 -3 -3 1 -14
11 -24 13 -14 13 -18 2 -18 -17 -1 4 -14 58 -37 33 -13 36 -13 24 0 -7 9 -25
18 -40 22 -15 3 -28 12 -28 20 0 22 14 19 74 -15 51 -29 83 -41 53 -19 -12 8
-9 9 13 5 34 -8 77 12 56 25 -8 5 -23 8 -34 8 -20 0 -20 0 0 -9 16 -7 13 -9
-15 -9 -19 0 -44 5 -55 10 -17 8 -16 9 7 6 15 -2 25 -1 23 4 -3 4 0 9 7 12 18
6 -33 -3 -57 -10 -17 -5 -18 -4 -7 10 12 14 10 15 -20 11 -22 -4 -40 0 -53 11
-19 15 -19 16 17 13 20 -2 34 0 32 4 -3 4 -18 8 -34 8 -32 0 -80 19 -80 31 0
10 30 16 58 11 18 -4 20 -7 10 -13 -10 -7 52 -6 72 1 3 1 -20 8 -49 16 -41 11
-63 12 -84 4 -37 -12 -40 -12 -32 0 3 6 0 10 -7 10 -9 0 -9 3 2 10 12 7 8 10
-14 10 -29 0 -29 0 -10 -21z"/>
<path d="M2345 300 c-4 -6 6 -7 22 -4 15 3 64 -2 108 -10 82 -16 149 -20 85
-5 -26 6 -17 7 35 4 57 -3 64 -2 35 6 -19 5 -62 7 -95 4 -33 -2 -52 -1 -43 3
9 4 -19 8 -62 9 -44 1 -82 -2 -85 -7z"/>
<path d="M698 282 c-52 -2 -88 -7 -88 -13 0 -7 24 -8 69 -3 84 8 145 -1 138
-21 -8 -19 36 -28 67 -13 14 6 26 15 26 20 0 5 -9 4 -19 -2 -16 -8 -20 -6 -24
8 -4 16 -5 16 -6 0 0 -10 -8 -18 -16 -18 -8 0 -12 6 -9 13 8 21 -45 32 -138
29z"/>
<path d="M90 270 c-8 -5 -12 -11 -9 -14 3 -3 14 1 25 9 21 16 8 20 -16 5z"/>
<path d="M317 264 c31 -11 47 -13 60 -5 16 9 15 10 -8 11 -15 0 -42 2 -60 5
-32 5 -31 4 8 -11z"/>
<path d="M424 271 c4 -6 18 -11 32 -11 14 0 27 -6 29 -12 3 -7 20 -14 38 -15
22 -2 28 0 18 6 -11 7 -9 10 10 14 13 2 8 3 -13 2 -20 -2 -40 1 -45 5 -14 14
-76 24 -69 11z"/>
<path d="M2688 268 c12 -8 19 -17 15 -22 -4 -4 0 -4 8 -1 8 3 29 -1 45 -10 16
-8 43 -15 59 -15 23 0 14 6 -40 26 -38 14 -79 28 -90 30 -17 5 -17 3 3 -8z"/>
<path d="M2862 268 c15 -5 40 -5 60 0 29 8 26 9 -27 9 -48 0 -55 -2 -33 -9z"/>
<path d="M0 260 c0 -13 11 -13 30 0 12 8 11 10 -7 10 -13 0 -23 -4 -23 -10z"/>
<path d="M141 254 c-19 -8 -57 -16 -85 -17 -28 -2 -52 -9 -54 -16 -3 -9 9 -10
50 -4 29 4 73 7 98 7 39 -1 42 0 20 8 -37 15 -5 23 39 10 42 -13 136 -32 156
-32 8 0 20 10 26 23 11 21 11 21 -7 5 -20 -17 -74 -14 -74 4 0 5 -9 6 -20 3
-12 -4 -26 -2 -33 3 -23 18 -81 21 -116 6z"/>
<path d="M1300 247 c-28 -41 -31 -47 -26 -47 7 0 49 61 44 65 -2 2 -10 -6 -18
-18z"/>
<path d="M2490 267 c6 -6 188 -67 201 -67 5 0 9 4 9 9 0 5 -22 12 -50 16 -27
4 -53 12 -57 17 -4 8 8 9 38 5 31 -5 39 -4 27 3 -9 5 -38 9 -65 9 -26 -1 -61
2 -78 6 -16 4 -28 5 -25 2z"/>
<path d="M2975 250 c20 -9 20 -9 0 -11 -11 -1 -26 -2 -32 -2 -7 1 -11 -3 -8
-7 3 -5 -1 -11 -7 -13 -7 -3 -3 -6 10 -6 12 -1 22 4 22 10 0 6 8 9 18 7 12 -4
18 1 19 13 1 13 -5 19 -20 18 -21 0 -21 -1 -2 -9z"/>
<path d="M441 232 c34 -28 19 -56 -24 -47 -42 9 -72 8 -127 -2 l-45 -9 53 -13
c81 -20 158 -20 178 1 16 16 16 20 3 45 -16 32 -28 43 -48 43 -8 0 -4 -7 10
-18z m-71 -51 c0 -9 -24 -21 -41 -21 -16 0 -10 18 9 23 28 8 32 7 32 -2z m93
-13 c-2 -5 -22 -8 -44 -8 -21 0 -39 3 -39 8 0 4 20 7 44 7 24 0 42 -3 39 -7z"/>
<path d="M580 240 c-13 -8 -12 -10 5 -11 11 -1 26 -1 33 0 6 1 12 -3 12 -8 0
-6 15 -4 35 5 22 9 35 10 35 4 0 -7 7 -7 21 0 11 7 31 9 44 6 13 -3 27 -1 31
5 8 13 -120 8 -150 -6 -14 -6 -17 -5 -12 3 9 15 -32 16 -54 2z"/>
<path d="M1024 235 c-17 -13 -16 -14 16 -3 43 14 49 18 24 18 -11 0 -29 -7
-40 -15z"/>
<path d="M2482 225 c4 -4 23 -8 43 -10 20 -2 47 -10 60 -19 17 -11 30 -13 51
-5 29 9 29 9 -4 4 -18 -3 -31 -1 -28 4 3 5 -6 12 -22 16 -42 11 -108 17 -100
10z"/>
<path d="M95 209 c-22 -3 -35 -7 -30 -8 6 -2 -8 -9 -30 -16 l-40 -14 35 5 c19
3 60 9 90 13 30 5 62 5 70 1 8 -4 40 -4 70 -1 51 6 53 7 22 13 -17 4 -43 3
-56 -2 -13 -5 -26 -7 -29 -4 -12 12 -66 19 -102 13z"/>
<path d="M570 209 c11 -7 4 -8 -25 -4 -36 4 -37 4 -10 -5 16 -5 40 -7 54 -3
23 6 24 7 6 14 -29 11 -42 10 -25 -2z"/>
<path d="M2835 210 c-25 -11 1 -11 35 0 20 6 21 8 5 8 -11 0 -29 -3 -40 -8z"/>
<path d="M673 199 c11 -7 23 -7 35 0 14 9 11 10 -18 10 -29 0 -32 -1 -17 -10z"/>
<path d="M812 202 c-18 -2 -30 -8 -27 -13 8 -12 52 -11 60 2 9 14 6 15 -33 11z"/>
<path d="M2710 202 c0 -9 59 -36 65 -30 3 2 -11 12 -30 21 -19 9 -35 13 -35 9z"/>
<path d="M1466 185 c27 -78 43 -117 44 -100 0 11 -12 43 -25 70 -14 28 -22 41
-19 30z"/>
<path d="M1516 140 c5 -64 9 -78 19 -68 3 2 -2 34 -10 69 l-15 64 6 -65z"/>
<path d="M2244 159 c-21 -23 -30 -37 -19 -31 25 13 70 60 64 67 -3 2 -23 -14
-45 -36z"/>
<path d="M2925 190 c17 -4 41 -8 55 -8 23 -1 23 0 5 8 -11 5 -36 8 -55 8 l-35
0 30 -8z"/>
<path d="M705 180 c-3 -6 4 -10 17 -10 13 0 34 -3 48 -5 22 -5 21 -3 -5 9 -36
18 -52 19 -60 6z"/>
<path d="M1274 158 c-14 -28 -15 -31 -2 -20 14 11 31 52 22 52 -2 0 -11 -15
-20 -32z"/>
<path d="M2800 180 c8 -5 22 -10 30 -10 13 0 13 1 0 10 -8 5 -22 10 -30 10
-13 0 -13 -1 0 -10z"/>
<path d="M81 176 c12 -13 121 -26 138 -16 12 7 3 9 -30 10 -26 0 -62 3 -80 6
-19 4 -31 4 -28 0z"/>
<path d="M2665 176 c6 -2 47 -14 93 -26 46 -13 79 -26 74 -29 -6 -3 15 -7 47
-7 31 -1 49 1 41 3 -8 3 -22 7 -30 10 -8 3 -24 5 -35 4 -15 -1 -17 0 -7 7 11
7 10 10 -3 16 -25 9 -32 7 -15 -5 16 -11 5 -9 -70 13 -34 10 -115 22 -95 14z"/>
<path d="M540 160 c-13 -8 -12 -10 3 -10 9 0 17 -4 17 -10 0 -5 5 -10 11 -10
8 0 8 4 -1 15 -10 12 -5 14 42 9 29 -3 68 -10 87 -15 37 -9 57 -4 25 6 -10 4
-27 11 -36 16 -23 12 -129 11 -148 -1z"/>
<path d="M2904 153 c22 -4 26 -7 15 -14 -8 -5 -9 -9 -3 -9 6 0 17 7 24 15 11
13 7 15 -26 14 -33 -2 -35 -3 -10 -6z"/>
<path d="M83 143 c9 -2 25 -2 35 0 9 3 1 5 -18 5 -19 0 -27 -2 -17 -5z"/>
<path d="M210 140 c-8 -5 -34 -10 -57 -10 -24 0 -43 -4 -43 -9 0 -5 10 -7 23
-4 17 4 19 3 7 -6 -11 -8 -1 -10 41 -10 31 1 62 5 70 11 10 7 4 8 -18 4 -19
-3 -33 -1 -33 4 0 6 16 10 35 10 19 0 35 -3 35 -8 0 -4 20 -6 45 -4 25 2 45 7
45 11 0 3 -18 5 -41 3 -22 -3 -46 1 -52 7 -13 13 -37 14 -57 1z"/>
<path d="M769 125 c-22 -22 -29 -24 -53 -15 -15 5 -32 7 -38 4 -6 -4 -14 0
-20 7 -7 11 -8 9 -6 -6 3 -16 12 -21 52 -23 39 -3 53 1 72 19 38 35 28 13 -22
-52 -25 -32 -41 -59 -36 -59 5 0 17 12 27 26 9 14 19 23 23 20 3 -4 12 4 19
16 17 32 16 3 -1 -31 -12 -23 -12 -28 -1 -28 15 0 29 56 19 81 -3 9 -1 23 6
31 9 11 9 15 1 15 -7 0 -9 5 -6 10 12 19 -11 10 -36 -15z"/>
<path d="M846 139 c-14 -40 -27 -102 -22 -106 3 -3 12 20 21 52 9 31 14 59 11
62 -3 3 -8 0 -10 -8z"/>
<path d="M16 131 c-17 -6 -17 -8 -4 -14 9 -3 24 1 35 8 14 11 15 14 3 14 -8 0
-24 -4 -34 -8z"/>
<path d="M612 127 c-7 -8 -9 -17 -5 -20 3 -4 -3 -7 -13 -7 -11 0 -25 -5 -32
-12 -9 -9 -12 -9 -12 0 0 7 7 15 16 19 15 5 14 7 -1 16 -13 7 -20 5 -27 -7 -5
-9 -14 -14 -19 -11 -5 4 -7 11 -4 16 8 11 -6 12 -23 0 -10 -6 -8 -10 10 -16
12 -4 26 -7 31 -6 4 1 7 -4 7 -9 0 -5 -9 -10 -20 -10 -11 0 -19 -5 -18 -12 2
-6 -10 -18 -25 -26 -16 -7 -27 -16 -24 -18 8 -9 58 16 63 31 4 10 13 13 25 10
12 -4 21 -1 25 9 3 9 14 16 25 16 10 0 23 9 29 21 14 25 8 35 -8 16z"/>
<path d="M2608 133 c-10 -2 -18 -9 -18 -14 0 -6 9 -7 20 -4 20 6 138 -16 195
-37 17 -6 49 -12 72 -13 22 -1 47 -6 54 -10 8 -5 10 -4 5 4 -6 8 0 10 21 6 25
-5 26 -5 5 5 -12 5 -42 8 -65 5 -23 -2 -51 -2 -61 2 -17 5 -16 7 10 19 29 14
22 14 -25 -1 -16 -5 -21 -4 -17 3 7 12 -67 36 -87 29 -7 -2 7 -7 31 -12 24 -4
41 -9 39 -12 -3 -2 -33 1 -68 8 -47 9 -58 14 -43 20 14 6 10 7 -16 7 -19 0
-43 -2 -52 -5z"/>
<path d="M375 120 c-3 -5 3 -10 14 -10 12 0 21 5 21 10 0 6 -6 10 -14 10 -8 0
-18 -4 -21 -10z"/>
<path d="M2955 120 c28 -12 45 -12 45 0 0 6 -15 10 -32 9 -28 0 -30 -2 -13 -9z"/>
<path d="M910 70 c-6 -23 -14 -48 -17 -56 -3 -8 -1 -14 4 -14 11 0 38 98 30
107 -3 3 -11 -14 -17 -37z"/>
<path d="M1004 96 c-3 -8 -4 -25 -2 -38 3 -17 5 -13 9 15 5 38 2 47 -7 23z"/>
<path d="M1267 61 c-9 -30 -17 -55 -17 -56 0 -1 7 -2 15 -2 8 0 12 4 9 8 -3 5
0 18 6 29 6 12 10 33 8 48 -3 23 -6 19 -21 -27z"/>
<path d="M2550 106 c0 -2 16 -13 35 -25 19 -11 41 -35 50 -53 8 -18 13 -25 11
-16 -4 14 5 16 77 13 58 -3 74 -1 53 5 -16 5 -40 7 -55 4 -31 -5 -88 9 -83 21
2 5 -13 19 -35 32 -36 22 -53 28 -53 19z"/>
<path d="M0 87 c0 -18 168 -87 210 -87 30 1 17 8 -79 50 -125 54 -131 56 -131
37z"/>
<path d="M256 91 c-6 -9 28 -18 101 -28 27 -3 43 -11 46 -21 3 -10 5 0 6 21 1
35 0 37 -15 23 -18 -18 -52 -21 -74 -5 -11 8 -6 9 23 7 20 -2 37 0 37 4 0 11
-117 10 -124 -1z"/>
<path d="M1236 74 c-4 -14 -5 -29 -2 -31 3 -3 8 7 12 21 3 15 4 29 1 32 -2 3
-8 -7 -11 -22z"/>
<path d="M2940 91 c20 -4 42 -11 50 -15 8 -4 6 0 -4 8 -11 9 -34 15 -50 15
-31 -1 -31 -1 4 -8z"/>
<path d="M96 80 c3 -2 35 -5 71 -5 42 -1 58 1 45 6 -22 9 -124 8 -116 -1z"/>
<path d="M2475 75 l-30 -13 48 1 c61 0 69 -9 34 -39 -15 -13 -22 -24 -15 -24
7 0 26 12 42 26 23 21 26 28 15 35 -8 5 -24 9 -37 9 -13 0 -20 4 -17 10 8 13
-3 12 -40 -5z"/>
<path d="M2117 74 c-13 -13 7 -34 32 -33 l26 1 -28 10 c-15 5 -25 14 -21 19 6
10 1 12 -9 3z"/>
<path d="M2659 66 c15 -18 49 -27 57 -15 3 5 -7 9 -21 9 -15 0 -24 4 -20 10 3
6 -1 10 -11 10 -13 0 -14 -3 -5 -14z"/>
<path d="M431 48 c0 -16 -5 -28 -11 -28 -5 0 -10 -5 -10 -12 0 -8 5 -7 16 4 9
9 14 26 11 39 -4 22 -4 22 -6 -3z"/>
<path d="M630 55 c0 -12 -7 -14 -26 -9 -19 5 -25 4 -20 -5 9 -14 38 -14 71 1
32 14 32 28 0 28 -16 0 -25 -6 -25 -15z"/>
<path d="M842 41 c-7 -19 -10 -36 -7 -39 6 -7 26 49 22 62 -2 6 -9 -5 -15 -23z"/>
<path d="M2800 55 c41 -23 72 -36 78 -31 2 3 -7 8 -21 11 -15 4 -31 13 -38 21
-6 8 -19 14 -28 14 -11 0 -8 -5 9 -15z"/>
<path d="M705 49 c4 -6 -2 -13 -14 -16 -11 -3 -18 -9 -15 -14 7 -12 40 6 48
26 3 9 0 15 -10 15 -8 0 -12 -5 -9 -11z"/>
<path d="M2755 50 c3 -5 16 -10 28 -9 21 0 21 1 2 9 -28 12 -37 12 -30 0z"/>
<path d="M2601 45 c0 -5 6 -19 14 -29 8 -11 15 -15 15 -10 0 6 -7 19 -15 30
-8 10 -14 15 -14 9z"/>
<path d="M30 30 c-12 -8 -9 -10 13 -10 16 0 26 4 22 10 -8 12 -16 12 -35 0z"/>
<path d="M250 20 c46 -25 63 -25 25 0 -16 11 -37 20 -45 20 -8 -1 1 -9 20 -20z"/>
<path d="M345 30 c-19 -8 -19 -9 2 -9 12 -1 25 4 28 9 7 12 -2 12 -30 0z"/>
<path d="M565 10 c3 -5 29 -10 57 -10 64 0 60 5 -10 14 -37 5 -52 4 -47 -4z"/>
<path d="M2805 10 c-4 -6 9 -10 32 -9 30 0 34 2 18 9 -27 12 -43 12 -50 0z"/>
<path d="M2920 10 c-33 -7 -33 -8 12 -7 26 0 45 4 42 9 -3 4 -8 7 -12 7 -4 -1
-23 -5 -42 -9z"/>
</g>
</svg>
